<svg height="511pt" viewBox="0 1 511 511.99975" width="511pt" xmlns="http://www.w3.org/2000/svg"><path d="m47.25 136.890625-28.082031-28.082031c-24.890625-24.890625-24.890625-65.25 0-90.140625 24.894531-24.890625 65.25-24.890625 90.140625 0l40.25 40.25v77.972656zm0 0" fill="#895140"/><path d="m465.382812 136.890625 28.078126-28.082031c24.890624-24.890625 24.890624-65.25 0-90.140625-24.890626-24.890625-65.25-24.890625-90.140626 0l-40.25 40.25v77.972656zm0 0" fill="#5b362a"/><path d="m277.5625 42.863281h-21.246094l-20.003906 449.132813 115.566406 7.988281c93.121094-31.082031 160.25-118.980469 160.25-222.550781 0-129.550782-105.019531-234.570313-234.566406-234.570313zm0 0" fill="#bc5f19"/><path d="m235.066406 42.863281c-129.546875 0-234.566406 105.019531-234.566406 234.566407 0 103.574218 67.128906 191.46875 160.25 222.550781l95.566406-7.984375v-449.132813zm0 0" fill="#e68a44"/><path d="m256.316406 260.332031-20.003906 136.160157 20.003906 115.507812h21.246094c25.972656 0 50.957031-4.230469 74.308594-12.027344v-144.082031c.003906-52.691406-42.867188-95.558594-95.554688-95.558594zm0 0" fill="#ffe9cc"/><path d="m160.757812 355.890625v144.082031c23.351563 7.796875 48.335938 12.027344 74.308594 12.027344h21.25v-251.667969c-52.691406 0-95.558594 42.867188-95.558594 95.558594zm0 0" fill="#fff5f5"/><path d="m121.222656 244.214844h31.871094v29.976562h-31.871094zm0 0" fill="#07485e"/><path d="m359.535156 244.214844h31.871094v29.976562h-31.871094zm0 0" fill="#04303e"/><path d="m311.867188 473.300781h-55.550782l-10.003906-14.988281 10.003906-14.988281h55.550782zm0 0" fill="#e68a44"/><path d="m241.324219 362.742188h29.980469v95.558593h-29.980469zm0 0" fill="#e68a44"/><path d="m256.316406 315.285156-20.003906 40.605469 20.003906 40.601563c22.421875 0 40.601563-18.179688 40.601563-40.601563 0-22.425781-18.179688-40.605469-40.601563-40.605469zm0 0" fill="#04303e"/><path d="m215.710938 355.890625c0 22.421875 18.179687 40.601563 40.605468 40.601563v-81.207032c-22.425781 0-40.605468 18.179688-40.605468 40.605469zm0 0" fill="#07485e"/><path d="m200.761719 443.324219h55.554687v29.976562h-55.554687zm0 0" fill="#eeaf80"/></svg>