<svg height="511pt" viewBox="0 1 511 511.999" width="511pt" xmlns="http://www.w3.org/2000/svg"><path d="m490.183594 128.027344c14.167968-14.164063 21.96875-33 21.96875-53.03125s-7.804688-38.863282-21.96875-53.027344c-14.164063-14.167969-32.996094-21.96875-53.03125-21.96875-20.03125 0-38.863282 7.800781-53.03125 21.964844l-31.097656 31.097656c-24.355469-8.347656-50.1875-12.710938-76.695313-12.710938h-40.007813c-26.503906 0-52.335937 4.363282-76.695312 12.710938l-31.097656-31.097656c-14.164063-14.164063-32.996094-21.964844-53.03125-21.964844-20.03125 0-38.863282 7.800781-53.03125 21.964844-14.164063 14.164062-21.964844 33-21.964844 53.03125 0 20.035156 7.800781 38.867187 21.964844 53.03125l17.46875 17.46875c-25.65625 38.378906-39.433594 83.472656-39.433594 130.679687 0 62.992188 24.53125 122.210938 69.070312 166.753907 44.539063 44.539062 103.761719 69.070312 166.75 69.070312h40.007813c62.988281 0 122.210937-24.53125 166.75-69.070312 44.542969-44.542969 69.070313-103.761719 69.070313-166.753907 0-47.207031-13.777344-92.300781-39.433594-130.679687zm-84.863282-84.863282c17.550782-17.550781 46.113282-17.550781 63.664063 0 17.554687 17.550782 17.554687 46.113282 0 63.664063l-14.65625 14.65625c-3.59375-4.125-7.339844-8.152344-11.25-12.058594-17.933594-17.9375-38.257813-32.625-60.242187-43.777343zm-361.65625 63.664063c-17.550781-17.550781-17.550781-46.113281 0-63.664063 17.554688-17.550781 46.113282-17.550781 63.664063 0l22.488281 22.484376c-21.988281 11.152343-42.308594 25.839843-60.246094 43.777343-3.90625 3.90625-7.652343 7.933594-11.25 12.058594zm287.636719 315.234375h-59.984375v-29.605469c17.460938-6.1875 30.003906-22.863281 30.003906-42.414062 0-24.8125-20.183593-44.996094-44.996093-44.996094-24.808594 0-44.992188 20.183594-44.992188 44.996094 0 19.554687 12.542969 36.226562 30.003907 42.414062v29.605469h-59.984376v-72.019531c0-41.339844 33.632813-74.972657 74.972657-74.972657 41.339843 0 74.972656 33.632813 74.972656 74.972657v72.019531zm-74.976562-57.007812c-8.277344 0-15.011719-6.734376-15.011719-15.011719 0-8.28125 6.734375-15.015625 15.011719-15.015625 8.277343 0 15.015625 6.734375 15.015625 15.015625 0 8.277343-6.738282 15.011719-15.015625 15.011719zm-20 116.964843c-19.035157 0-37.464844-2.605469-54.972657-7.464843v-22.515626h149.949219v22.515626c-17.507812 4.859374-35.941406 7.464843-54.972656 7.464843zm124.953125-18.359375v-113.621094c0-57.871093-47.078125-104.949218-104.953125-104.949218-57.871094 0-104.953125 47.078125-104.953125 104.949218v113.621094c-71.238282-32.40625-120.890625-104.253906-120.890625-187.484375 0-113.503906 92.339843-205.84375 205.839843-205.84375h40.007813c113.503906 0 205.84375 92.34375 205.84375 205.84375 0 83.230469-49.65625 155.078125-120.894531 187.484375zm0 0"/><path d="m119.730469 234.609375h30.003906v29.980469h-30.003906zm0 0"/><path d="m362.917969 234.609375h30.003906v29.980469h-30.003906zm0 0"/></svg>